<svg xmlns="http://www.w3.org/2000/svg" width="23" height="23" viewBox="0 0 23 23">
	<rect x="0" y="0" width="23" height="23" rx="2.5" ry="2.5" fill="rgb(204, 204, 201)" />
	<g fill="white" fill-rule="evenodd">
		<path
			d="
				M4,5 l1,-.5 h2 l1,.5 h1 l1,-1 h3 l2,2 h2
				v8 h-13z
				M5,6 h2 v1 h-2 v-1z
				M 11.5 9.5 m -3.5, 0 a 3.5,3.5 0 1,0 7,0 a 3.5,3.5 0 1,0 -7,0
				M 11.5 9.5 m -2.5, 0 a 2.5,2.5 0 1,0 5,0 a 2.5,2.5 0 1,0 -5,0
			"
		/>
	</g>
	<g stroke="white" stroke-width="1.5" stroke-linecap="round">
		<line x1="18.75" y1="16.5" x2="18.75" y2="21" />
		<line x1="16.5" y1="18.75" x2="21" y2="18.75" />
	</g>
</svg>